<svg width="35" height="34" viewBox="0 0 35 34" fill="none" xmlns="http://www.w3.org/2000/svg">
<path d="M30.625 27.0312V24.625H10.0625L11.375 22.2188L31.5 20.25L35 7.125H8.09375L6.5625 0.5625H0V2.75H4.8125L9.40625 21.125L6.5625 26.8125V30.0938C6.5625 31.8438 8.09375 33.375 9.84375 33.375C11.5938 33.375 13.125 31.8438 13.125 30.0938C13.125 28.3438 11.5938 26.8125 9.84375 26.8125H26.25V30.0938C26.25 31.8438 27.7812 33.375 29.5312 33.375C31.2812 33.375 32.8125 31.8438 32.8125 30.0938C32.8125 28.5625 31.9375 27.4688 30.625 27.0312Z" fill="black"/>
</svg>
