<svg width="200" height="91" viewBox="0 0 200 91" fill="none" xmlns="http://www.w3.org/2000/svg">
<path d="M44.8964 1.8939C42.2455 6.09505 -0.22471 89.0545 0.000895604 89.5863C0.226501 90.1712 2.20055 90.3308 9.02511 90.3308H17.7673L22.9562 80.2267L28.1452 70.1227H36.4926C43.9375 70.1227 44.84 70.2291 45.122 71.0267C45.2348 71.5585 45.5732 75.866 45.7424 80.5458C45.968 85.2787 46.3064 89.3735 46.532 89.6394C47.3216 90.8626 177.947 91.5539 187.31 90.4371C193.683 89.6394 197.744 88.7354 197.744 88.2036C197.744 87.9377 196.672 86.8741 195.375 85.8637L193.006 83.9493L194.021 79.11C195.093 74.1111 194.924 73.3666 192.837 73.3134C192.442 73.3134 192.104 73.1007 192.104 72.888C192.104 72.6221 193.909 64.5389 196.052 54.9667C198.252 45.3944 200 36.673 200 35.6095C199.887 30.9297 196.842 26.5158 192.329 24.5482C189.397 23.3251 189.002 23.2719 177.891 23.4314C166.498 23.591 166.441 23.591 163.057 25.1332C156.909 28.0048 152.792 33.0569 151.156 39.7574C150.085 44.0118 150.198 44.0649 159.335 44.0649C163.565 44.0649 167.287 43.8522 167.626 43.6395C167.964 43.4268 168.472 42.4696 168.697 41.5655L169.092 39.8106H175.24C182.064 39.8106 181.782 39.5979 180.654 43.799L179.921 46.458L169.769 46.7239C160.068 46.9898 159.56 47.043 156.515 48.532C154.71 49.3297 152.115 51.1909 150.592 52.6268L147.942 55.1794L145.798 54.0094C143.824 52.9458 143.655 52.68 143.937 51.2441C144.106 50.3401 145.46 44.384 146.926 37.9493C148.393 31.5147 149.521 25.9309 149.352 25.5586C149.182 25.08 146.926 24.9205 140.779 24.9205C133.898 24.9205 132.375 24.7609 132.093 24.1228C131.867 23.4314 130.232 23.3251 122.223 23.3251H112.578L109.927 26.7817C108.404 28.643 106.938 30.132 106.599 29.9725C106.205 29.8661 103.441 28.2176 100.395 26.3563C91.7659 21.0384 60.9707 2.74477 59.0531 1.84072C57.8123 1.20257 55.7254 0.989853 51.4389 0.989853C46.3628 0.989853 45.404 1.14939 44.8964 1.8939ZM59.1659 45.0753C61.1963 76.1851 61.7039 86.3955 61.1963 86.9273C60.7451 87.4591 58.9967 87.6718 54.7666 87.6718H49.0136L48.6188 82.1944C48.4496 79.2163 48.1112 74.8025 47.942 72.4094L47.6036 67.9955H36.8874H26.2275L21.1514 77.8337L16.1317 87.6718H9.87113C4.11819 87.6718 3.61058 87.6186 4.00539 86.7146C4.17459 86.236 13.932 67.3042 25.6071 44.7031L46.8704 3.64881L51.6645 3.75517L56.4586 3.9147L59.1659 45.0753ZM96.6164 33.2696C98.8724 39.5447 99.6056 41.1401 100.508 41.2464C101.298 41.3528 103.215 39.332 107.953 33.4291L114.326 25.4522H121.095C125.212 25.4522 127.806 25.665 127.693 25.984C127.637 26.2499 122.335 32.8441 116.018 40.7147L104.513 54.9135L110.04 70.6013C113.086 79.2695 115.68 86.6614 115.849 87.0337C116.018 87.5654 114.552 87.6718 108.912 87.5654L101.692 87.4059L98.3084 78.2059C95.714 71.1863 94.7551 69.0591 93.9655 69.0591C93.4015 69.0591 90.0738 72.6753 85.4489 78.3655L77.8911 87.6718H70.9538H64.0164L68.4721 82.1944C80.9932 66.932 90.0174 55.658 90.0174 55.3389C90.0174 55.1262 87.7614 48.4788 84.9413 40.6083C82.1776 32.7378 79.8652 26.0904 79.8652 25.8777C79.8652 25.6118 83.0237 25.4522 86.8589 25.4522H93.8527L96.6164 33.2696ZM189.622 26.2499C194.247 27.5262 197.18 31.1424 197.18 35.6095C197.18 36.7262 195.262 46.0857 192.95 56.3493C190.637 66.6129 188.889 75.2279 189.058 75.4938C189.227 75.7597 189.961 75.9724 190.694 75.9724H191.991L190.919 80.599C190.299 83.2048 189.735 85.8105 189.566 86.5019C189.284 87.5123 188.889 87.6718 186.746 87.6718C185.336 87.6718 183.192 87.2996 181.895 86.7678C179.752 85.9701 179.357 85.9701 176.932 86.7678C172.927 88.1504 153.864 88.0441 150.649 86.6614C144.388 83.9493 143.542 80.014 146.419 67.6765C148.336 59.6464 148.957 58.2638 151.946 55.1262C156.684 50.1805 159.729 49.2765 172.363 48.9042L182.234 48.5852L183.192 45.1285C184.433 40.5019 184.433 37.8962 183.305 37.4707C182.798 37.3112 179.244 37.1516 175.296 37.1516C167.569 37.1516 166.159 37.6303 166.159 40.1829C166.159 41.406 166.103 41.406 159.955 41.406C152.905 41.406 153.074 41.5655 154.935 36.8858C156.909 31.8869 162.55 27.3135 168.246 26.0372C171.912 25.2395 186.464 25.3459 189.622 26.2499ZM130.57 30.6106C130.006 33.2164 129.104 36.9921 128.652 39.1193L127.75 42.9482L124.535 41.0337C122.787 39.917 121.207 39.0129 121.095 38.9066C120.925 38.8002 131.19 25.984 131.472 25.984C131.585 25.984 131.19 28.058 130.57 30.6106ZM146.419 27.7921C146.419 28.058 134.18 82.0348 133.39 85.1192L132.77 87.6718H126.565C120.418 87.6718 120.361 87.6718 120.643 86.4487C120.813 85.8105 123.802 72.8348 127.242 57.6256C130.683 42.4164 133.616 29.4407 133.841 28.7494C134.123 27.6326 134.349 27.5794 140.271 27.5794C143.655 27.5794 146.419 27.6858 146.419 27.7921Z" fill="black"/>
<path d="M44.0503 30.0788C43.5427 31.1956 41.2303 36.5135 38.9178 41.9378C35.3081 50.3933 34.4057 51.9354 32.8829 52.8395C31.924 53.4245 31.0216 54.3285 30.9088 54.8603C30.7396 55.658 31.4164 55.7643 38.5794 55.7643H46.4756L46.8704 51.3505C47.0396 48.9574 47.1524 42.7886 47.0396 37.6834C46.8704 29.4407 46.7576 28.3771 45.9116 28.2176C45.2347 28.1112 44.6707 28.643 44.0503 30.0788ZM44.1067 52.9459C43.8811 53.4245 42.6403 53.6372 40.3278 53.6372C38.4666 53.6372 37.0002 53.4245 37.113 53.1586C37.2258 52.8927 38.805 49.117 40.6662 44.7031L44.0503 36.673L44.2195 44.4372C44.2759 48.7447 44.2195 52.5736 44.1067 52.9459Z" fill="black"/>
<path d="M156.966 60.9227C156.176 61.6141 156.571 62.8904 157.981 64.2198L159.335 65.6025L158.319 70.1227C157.755 72.5689 157.417 74.9088 157.53 75.2811C157.755 75.8129 160.011 75.9724 166.78 75.9724C174.732 75.9724 175.747 75.8661 176.199 75.0684C176.481 74.5366 177.27 71.2927 178.003 67.836C179.075 62.4649 179.188 61.4545 178.511 61.0291C177.609 60.4973 157.53 60.3909 156.966 60.9227ZM175.296 67.3042C174.845 69.5909 174.394 71.5054 174.337 71.6117C174.225 71.7713 162.042 64.1666 161.139 63.4221C161.027 63.3158 164.354 63.2094 168.528 63.2094H176.142L175.296 67.3042Z" fill="black"/>
<path d="M136.323 5.08465C134.856 10.5089 133.334 18.5921 133.616 19.3367C133.898 19.9748 135.308 20.1343 142.076 20.1343C147.942 20.1343 150.367 19.9216 150.762 19.443C151.326 18.8049 154.315 5.7228 154.315 4.02107C154.315 3.22338 153.525 3.11702 145.573 3.11702H136.887L136.323 5.08465ZM151.044 5.51008C151.326 5.77598 149.69 14.2315 148.9 16.5182C148.618 17.369 147.829 17.4754 142.414 17.4754C136.774 17.4754 136.21 17.369 136.436 16.5182C136.605 16.0395 137.169 13.6997 137.677 11.3598C138.184 9.01991 138.748 6.68002 138.861 6.14823C139.143 5.35055 139.933 5.24419 144.952 5.24419C148.111 5.24419 150.874 5.35055 151.044 5.51008Z" fill="black"/>
</svg>
