<svg width="30" height="40" viewBox="0 0 30 40" fill="none" xmlns="http://www.w3.org/2000/svg">
<path d="M30 39.375H0V35.625C0 33.1386 0.98772 30.754 2.74587 28.9959C4.50403 27.2377 6.8886 26.25 9.375 26.25H20.625C23.1114 26.25 25.496 27.2377 27.2541 28.9959C29.0123 30.754 30 33.1386 30 35.625V39.375ZM15 22.5C13.5226 22.5 12.0597 22.209 10.6948 21.6436C9.3299 21.0783 8.08971 20.2496 7.04505 19.205C6.00039 18.1603 5.17172 16.9201 4.60636 15.5552C4.04099 14.1903 3.75 12.7274 3.75 11.25C3.75 9.77263 4.04099 8.30972 4.60636 6.94481C5.17172 5.5799 6.00039 4.33971 7.04505 3.29505C8.08971 2.25039 9.3299 1.42172 10.6948 0.856355C12.0597 0.29099 13.5226 -2.20145e-08 15 0C17.9837 4.44604e-08 20.8452 1.18526 22.955 3.29505C25.0647 5.40483 26.25 8.26631 26.25 11.25C26.25 14.2337 25.0647 17.0952 22.955 19.205C20.8452 21.3147 17.9837 22.5 15 22.5Z" fill="black"/>
</svg>
